# xmcd
#
# Track frame offsets:
#	150
#	13071
#	27693
#	42591
#	59583
#	70405
#	87508
#	103462
#	116090
#	127740
#	141133
#	156863
#	169929
#	181182
#	192817
#	204067
#	217375
#	229231
#	240119
#	255515
#	268721
#	284402
#	303356
#	324279
#
# Disc length: 4744 seconds
#
# Revision: 1
# Processed by: cddbd v1.5.2PL0 Copyright (c) Steve Scherf et al.
# Submitted via: audiograbber 1.83.01
#
DISCID=66128618
DTITLE=Various Artist - Cold Cold Heart: Where Country Meets Soul Vol. 3
DYEAR=2014
DGENRE=Soul - Country
TTITLE0=Percy Sledge - True Love Travels On A Gravel Road
TTITLE1=Margie Joseph - Touch Your Woman
TTITLE2=George Benson - My Woman's Good To Me
TTITLE3=Solomon Burke - Beautful Brown Eyes
TTITLE4=Clarence Frogman Henry - Hummin' A Heartache
TTITLE5=The Temptations - Little Green Apples
TTITLE6=Bo Kirkland and Ruth Davis - Easy Lovin'
TTITLE7=Little Johnny Taylor - Big Blue Diamonds
TTITLE8=Arthur Alexander - I Hang My Head And Cry
TTITLE9=Cornell Gunter and The Cornells - Wishful Thinking
TTITLE10=The Supremes - It Makes No Difference Now
TTITLE11=The Mirettes - Stand By Your Man
TTITLE12=Bobby Bland - Who Will The Next Fool Be
TTITLE13=Laura Lee - Another Man's Woman, Another Woman's Man
TTITLE14=Johnny Adams - Cold Cold Heart
TTITLE15=Bettye Swann - Till I Get It Right
TTITLE16=Ralph Soul Jackson - Jambalaya
TTITLE17=Brook Benton - Tender Years
TTITLE18=Ona Watson - Take This Job And Shove It
TTITLE19=Esther Phillips - Too Late To Worry, Too Blue To Cry
TTITLE20=O.C. Smith - Long Black Limousine
TTITLE21=Little Milton - Whenever You Come Around
TTITLE22=Willie Clayton - When I Think About Cheating
TTITLE23=The Isley Brothers - The Most Beautiful Girl
EXTD=
EXTT0=
EXTT1=
EXTT2=
EXTT3=
EXTT4=
EXTT5=
EXTT6=
EXTT7=
EXTT8=
EXTT9=
EXTT10=
EXTT11=
EXTT12=
EXTT13=
EXTT14=
EXTT15=
EXTT16=
EXTT17=
EXTT18=
EXTT19=
EXTT20=
EXTT21=
EXTT22=
EXTT23=
PLAYORDER=
